<?xml version="1.0" encoding="UTF-8" standalone="no"?><svg width="806" height="300" xmlns="http://www.w3.org/2000/svg">

 <g>
  <title>background</title>
  <rect fill="none" id="canvas_background" height="302" width="808" y="-1" x="-1"/>
 </g>
 <g>
  <title>Layer 1</title>
  <g id="Form_1_1_">
   <g id="Form_1">
    <g id="svg_1">
     <path id="svg_2" fill-rule="evenodd" clip-rule="evenodd" fill="#969200" d="m194.219,10.882c-73.326,0 -137.553,38.858 -173.288,97.086l25.961,4.219c34.214,-47.61 91.437,-78.851 156.308,-78.851c78.161,0 145.261,45.317 174.327,110.026l7.243,0c-28.723,-77.359 -103.195,-132.48 -190.551,-132.48z"/>
    </g>
   </g>
  </g>
  <g id="Form_3_1_">
   <g id="Form_3">
    <g id="svg_32">
     <path id="svg_33" fill-rule="evenodd" clip-rule="evenodd" fill="#969200" d="m80.728,249.532c-5.976,2.785 -12.214,4.206 -18.727,4.206c-4.279,0 -7.946,-0.44 -10.998,-1.321c-3.05,-0.879 -5.567,-2.265 -7.546,-4.152c-1.984,-1.889 -3.43,-4.342 -4.34,-7.36c-0.912,-3.021 -1.367,-6.703 -1.367,-11.044l0,-81.378l-23.539,-4.16l0,86.483c0,25.544 14.78,38.316 44.341,38.316c9.149,0 17.726,-2.077 25.739,-6.211l-3.563,-13.379z"/>
    </g>
   </g>
  </g>
  <g id="Form_4_1_">
   <g id="Form_4_4_">
    <g id="svg_34">
     <path id="svg_35" fill-rule="evenodd" clip-rule="evenodd" fill="#969200" d="m160.905,162.082l0,74.086c-9.582,11.076 -20.104,16.611 -31.571,16.611c-3.775,0 -7.01,-0.441 -9.701,-1.323c-2.692,-0.879 -4.913,-2.264 -6.659,-4.151c-1.749,-1.888 -3.025,-4.342 -3.829,-7.359c-0.804,-3.023 -1.206,-6.704 -1.206,-11.044l0,-66.819l-20.768,0l0,67.764c0,25.544 13.04,38.315 39.121,38.315c12.795,0 24.333,-5.19 34.613,-15.57l0,13.117l20.347,0l0,-103.627l-20.347,0z"/>
    </g>
   </g>
  </g>
  <g id="Form_5_1_">
   <g id="Form_5">
    <g id="svg_36">
     <path id="svg_37" fill-rule="evenodd" clip-rule="evenodd" fill="#969200" d="m244.142,159.201c-6.36,0 -12.408,1.29 -18.138,3.865c-5.733,2.574 -11.15,6.532 -16.251,11.869l0,-13.094l-20.341,0l0,103.441l20.341,0l0,-74.236c10.553,-10.99 21.038,-16.488 31.454,-16.488c3.774,0 7.007,0.441 9.698,1.319c2.69,0.881 4.911,2.277 6.658,4.191c1.747,1.918 3.023,4.384 3.828,7.396c0.803,3.015 1.206,6.658 1.206,10.927l0,66.89l20.656,0l0,-67.736c-0.002,-25.562 -13.039,-38.344 -39.111,-38.344z"/>
    </g>
   </g>
  </g>
  <g id="Form_6_1_">
   <g id="Form_6_4_">
    <g id="svg_38">
     <path id="svg_39" fill-rule="evenodd" clip-rule="evenodd" fill="#969200" d="m387.281,178.875c-2.168,-5.094 -5.281,-9.105 -9.337,-12.033c-4.057,-2.924 -8.987,-4.967 -14.791,-6.133c-5.806,-1.162 -12.311,-1.747 -19.514,-1.747c-32.033,0 -48.713,10.761 -50.041,32.278l20.563,0c0.629,-11.829 10.035,-17.744 28.22,-17.744c6.924,0 12.256,0.614 15.998,1.84c3.742,1.227 6.486,3.021 8.236,5.381c1.747,2.357 2.779,5.285 3.096,8.776c0.314,3.493 0.47,7.472 0.47,11.938l-10.175,0c-46.37,0 -69.554,12.114 -69.554,36.335c0,4.469 0.997,8.54 2.991,12.22c1.992,3.683 4.755,6.83 8.287,9.44c3.53,2.609 7.675,4.641 12.433,6.087c4.755,1.446 9.895,2.169 15.42,2.169c16.225,0 29.759,-4.341 40.599,-13.022l0,10.569l9.301,0l11.05,0l0,-28.57l0,-38.436c-0.001,-7.799 -1.086,-14.25 -3.252,-19.348zm-17.101,59.08c-1.819,2.392 -4.021,4.529 -6.607,6.417c-2.59,1.888 -5.387,3.479 -8.395,4.766c-3.008,1.292 -6.188,2.283 -9.546,2.974c-3.356,0.692 -6.713,1.037 -10.07,1.037c-3.638,0 -6.943,-0.36 -9.914,-1.086c-2.973,-0.721 -5.525,-1.774 -7.658,-3.16c-2.135,-1.383 -3.778,-3.083 -4.932,-5.096c-1.154,-2.014 -1.731,-4.341 -1.731,-6.985c0,-14.533 14.861,-21.8 44.587,-21.8l14.265,0l0,22.933l0.001,0z"/>
    </g>
   </g>
  </g>
  <g id="Form_7_1_">
   <g id="Form_7">
    <g id="svg_40">
     <path id="svg_41" fill-rule="evenodd" clip-rule="evenodd" fill="#5F5E5E" d="m505.465,190.552c-2.1,-6.6 -5.176,-12.226 -9.23,-16.88c-4.057,-4.65 -9.023,-8.266 -14.895,-10.842c-5.875,-2.578 -12.623,-3.868 -20.242,-3.868c-12.799,0 -23.775,4.968 -32.938,14.9l0,-12.258l-20.349,0l0,128.398l20.349,0l0,-32.875c4.406,3.647 9.196,6.304 14.371,7.97c5.174,1.664 10.941,2.496 17.307,2.496c6.922,0 13.373,-1.303 19.35,-3.912c5.98,-2.607 11.137,-6.317 15.473,-11.125c4.336,-4.812 7.744,-10.61 10.225,-17.401c2.482,-6.788 3.727,-14.364 3.727,-22.726c-0.002,-7.982 -1.052,-15.275 -3.148,-21.877zm-20.192,39.557c-1.365,5.062 -3.289,9.291 -5.768,12.684c-2.484,3.396 -5.492,5.958 -9.023,7.686c-3.531,1.732 -7.498,2.594 -11.904,2.594c-11.326,0 -21.467,-4.182 -30.418,-12.542l0,-49.223c9.442,-11.88 19.859,-17.823 31.258,-17.823c8.811,0 15.662,3.286 20.557,9.854c4.895,6.57 7.342,16.267 7.342,29.09c-0.001,6.729 -0.68,12.624 -2.044,17.68z"/>
    </g>
   </g>
  </g>
  <g id="Form_8_1_">
   <g id="Form_8_4_">
    <g id="svg_42">
     <path id="svg_43" fill-rule="evenodd" clip-rule="evenodd" fill="#5F5E5E" d="m609.277,179.115c-2.168,-5.094 -5.281,-9.105 -9.336,-12.033c-4.057,-2.924 -8.988,-4.968 -14.791,-6.134c-5.807,-1.162 -12.311,-1.747 -19.514,-1.747c-32.031,0 -48.713,10.761 -50.041,32.278l20.563,0c0.629,-11.828 10.037,-17.743 28.219,-17.743c6.924,0 12.256,0.614 16,1.84c3.74,1.227 6.486,3.02 8.234,5.38c1.748,2.357 2.781,5.285 3.096,8.776c0.313,3.494 0.471,7.472 0.471,11.938l-10.176,0c-46.369,0 -69.551,12.114 -69.551,36.335c0,4.468 0.994,8.54 2.988,12.22c1.994,3.682 4.754,6.83 8.287,9.439c3.531,2.61 7.674,4.641 12.432,6.088c4.756,1.446 9.896,2.169 15.422,2.169c16.225,0 29.756,-4.341 40.598,-13.023l0,10.569l20.354,0l0,-67.006c-0.001,-7.797 -1.087,-14.248 -3.255,-19.346zm-17.099,59.08c-1.818,2.392 -4.021,4.529 -6.607,6.417c-2.59,1.888 -5.389,3.478 -8.395,4.765c-3.006,1.293 -6.189,2.283 -9.545,2.975c-3.357,0.692 -6.715,1.037 -10.072,1.037c-3.635,0 -6.941,-0.36 -9.912,-1.086c-2.975,-0.722 -5.527,-1.774 -7.658,-3.16c-2.135,-1.383 -3.777,-3.084 -4.93,-5.096c-1.154,-2.014 -1.732,-4.341 -1.732,-6.985c0,-14.533 14.861,-21.8 44.584,-21.8l14.268,0l0,22.933l-0.001,0z"/>
    </g>
   </g>
  </g>
  <g id="Form_9_1_">
   <g id="Form_9">
    <g id="svg_44">
     <path id="svg_45" fill-rule="evenodd" clip-rule="evenodd" fill="#5F5E5E" d="m677.975,159.676c-1.504,-0.154 -2.953,-0.235 -4.35,-0.235c-11.463,0 -21.529,5.652 -30.195,16.958l0,-14.318l-20.34,0l0,103.44l20.34,0l0,-73.2c3.914,-4.96 8.072,-8.668 12.479,-11.117c4.4,-2.449 9.258,-3.674 14.57,-3.674s9.436,0.44 12.373,1.318l0,-18.559c-1.75,-0.247 -3.377,-0.454 -4.877,-0.613z"/>
    </g>
   </g>
  </g>
  <g id="Form_10_1_">
   <g id="Form_10_4_">
    <g id="svg_46">
     <polygon id="svg_47" fill-rule="evenodd" clip-rule="evenodd" fill="#5F5E5E" points="741.1409912109375,199.87799072265625 785.0040283203125,161.33900451660156 759.1909790039062,161.33900451660156 714.4879760742188,202.79901123046875 714.4879760742188,121.76199340820312 694.1309814453125,121.76199340820312 694.1309814453125,264.802001953125 714.4879760742188,264.802001953125 714.4879760742188,223.718994140625 727.291015625,212.12701416015625 765.0679931640625,264.802001953125 789.4099731445312,264.802001953125 "/>
    </g>
   </g>
  </g>
 </g>
</svg>